HIERARCHY
ROOT hip
{
  OFFSET -295.042 84.3582 4.46087
  CHANNELS 6 Xposition Yposition Zposition Zrotation Xrotation Yrotation
  JOINT abdomen
  {
    OFFSET 0 20.6881 -0.73152
    CHANNELS 3 Zrotation Xrotation Yrotation
    JOINT chest
    {
      OFFSET 0 11.7043 -0.48768
      CHANNELS 3 Zrotation Xrotation Yrotation
      JOINT neck
      {
        OFFSET 0 22.1894 -2.19456
        CHANNELS 3 Zrotation Xrotation Yrotation
        JOINT head
        {
          OFFSET -0.24384 7.07133 1.2192
          CHANNELS 3 Zrotation Xrotation Yrotation
          JOINT leftEye
          {
            OFFSET 4.14528 8.04674 8.04672
            CHANNELS 3 Zrotation Xrotation Yrotation
            End Site
            {
              OFFSET 1 0 0
            }
          }
          JOINT rightEye
          {
            OFFSET -3.6576 8.04674 8.04672
            CHANNELS 3 Zrotation Xrotation Yrotation
            End Site
            {
              OFFSET 1 0 0
            }
          }
        }
      }
      JOINT rCollar
      {
        OFFSET -2.68224 19.2634 -4.8768
        CHANNELS 3 Zrotation Xrotation Yrotation
        JOINT rShldr
        {
          OFFSET -8.77824 -1.95073 1.46304
          CHANNELS 3 Zrotation Xrotation Yrotation
          JOINT rForeArm
          {
            OFFSET -28.1742 -1.7115 0.48768
            CHANNELS 3 Zrotation Xrotation Yrotation
            JOINT rHand
            {
              OFFSET -22.5879 0.773209 7.07136
              CHANNELS 3 Zrotation Xrotation Yrotation
              JOINT rThumb1
              {
                OFFSET -1.2192 -0.487915 3.41376
                CHANNELS 3 Zrotation Xrotation Yrotation
                JOINT rThumb2
                {
                  OFFSET -3.37035 -0.52449 3.41376
                  CHANNELS 3 Zrotation Xrotation Yrotation
                  End Site
                  {
                    OFFSET -1.78271 -1.18214 1.43049
                  }
                }
              }
              JOINT rIndex1
              {
                OFFSET -7.75947 0.938293 5.60832
                CHANNELS 3 Zrotation Xrotation Yrotation
                JOINT rIndex2
                {
                  OFFSET -2.54057 -0.884171 1.56538
                  CHANNELS 3 Zrotation Xrotation Yrotation
                  End Site
                  {
                    OFFSET -1.62519 -0.234802 1.16502
                  }
                }
              }
              JOINT rMid1
              {
                OFFSET -8.24714 1.18213 3.41376
                CHANNELS 3 Zrotation Xrotation Yrotation
                JOINT rMid2
                {
                  OFFSET -3.10165 -0.590103 1.0647
                  CHANNELS 3 Zrotation Xrotation Yrotation
                  End Site
                  {
                    OFFSET -2.48547 -0.328903 0.83742
                  }
                }
              }
              JOINT rRing1
              {
                OFFSET -8.82822 0.546677 1.51678
                CHANNELS 3 Zrotation Xrotation Yrotation
                JOINT rRing2
                {
                  OFFSET -2.60934 -0.819778 -0.0198488
                  CHANNELS 3 Zrotation Xrotation Yrotation
                  End Site
                  {
                    OFFSET -2.33842 -0.294052 0.168128
                  }
                }
              }
              JOINT rPinky1
              {
                OFFSET -8.27202 -0.0477905 -0.4584
                CHANNELS 3 Zrotation Xrotation Yrotation
                JOINT rPinky2
                {
                  OFFSET -1.82734 -0.647385 -0.700984
                  CHANNELS 3 Zrotation Xrotation Yrotation
                  End Site
                  {
                    OFFSET -1.69225 -0.51767 -0.607171
                  }
                }
              }
            }
          }
        }
      }
      JOINT lCollar
      {
        OFFSET 2.68224 19.2634 -4.8768
        CHANNELS 3 Zrotation Xrotation Yrotation
        JOINT lShldr
        {
          OFFSET 8.77824 -1.95073 1.46304
          CHANNELS 3 Zrotation Xrotation Yrotation
          JOINT lForeArm
          {
            OFFSET 28.1742 -1.7115 0.48768
            CHANNELS 3 Zrotation Xrotation Yrotation
            JOINT lHand
            {
              OFFSET 22.5879 0.773209 7.07136
              CHANNELS 3 Zrotation Xrotation Yrotation
              JOINT lThumb1
              {
                OFFSET 1.2192 -0.487915 3.41376
                CHANNELS 3 Zrotation Xrotation Yrotation
                JOINT lThumb2
                {
                  OFFSET 3.37035 -0.52449 3.41376
                  CHANNELS 3 Zrotation Xrotation Yrotation
                  End Site
                  {
                    OFFSET 1.78271 -1.18214 1.43049
                  }
                }
              }
              JOINT lIndex1
              {
                OFFSET 7.75947 0.938293 5.60832
                CHANNELS 3 Zrotation Xrotation Yrotation
                JOINT lIndex2
                {
                  OFFSET 2.54057 -0.884171 1.56538
                  CHANNELS 3 Zrotation Xrotation Yrotation
                  End Site
                  {
                    OFFSET 1.62519 -0.234802 1.16502
                  }
                }
              }
              JOINT lMid1
              {
                OFFSET 8.24714 1.18213 3.41376
                CHANNELS 3 Zrotation Xrotation Yrotation
                JOINT lMid2
                {
                  OFFSET 3.10165 -0.590103 1.0647
                  CHANNELS 3 Zrotation Xrotation Yrotation
                  End Site
                  {
                    OFFSET 2.48547 -0.328903 0.83742
                  }
                }
              }
              JOINT lRing1
              {
                OFFSET 8.82822 0.546677 1.51678
                CHANNELS 3 Zrotation Xrotation Yrotation
                JOINT lRing2
                {
                  OFFSET 2.60934 -0.819778 -0.0198488
                  CHANNELS 3 Zrotation Xrotation Yrotation
                  End Site
                  {
                    OFFSET 2.33842 -0.294052 0.168128
                  }
                }
              }
              JOINT lPinky1
              {
                OFFSET 8.27202 -0.0477905 -0.4584
                CHANNELS 3 Zrotation Xrotation Yrotation
                JOINT lPinky2
                {
                  OFFSET 1.82734 -0.647385 -0.700984
                  CHANNELS 3 Zrotation Xrotation Yrotation
                  End Site
                  {
                    OFFSET 1.69225 -0.51767 -0.607171
                  }
                }
              }
            }
          }
        }
      }
    }
  }
  JOINT rButtock
  {
    OFFSET -8.77824 4.35084 1.2192
    CHANNELS 3 Zrotation Xrotation Yrotation
    JOINT rThigh
    {
      OFFSET 0 -1.70687 -2.19456
      CHANNELS 3 Zrotation Xrotation Yrotation
      JOINT rShin
      {
        OFFSET 0 -36.8199 0.73152
        CHANNELS 3 Zrotation Xrotation Yrotation
        JOINT rFoot
        {
          OFFSET 0.73152 -45.1104 -5.12064
          CHANNELS 3 Zrotation Xrotation Yrotation
          End Site
          {
            OFFSET -1.1221 -3.69964 12.103
          }
        }
      }
    }
  }
  JOINT lButtock
  {
    OFFSET 8.77824 4.35084 1.2192
    CHANNELS 3 Zrotation Xrotation Yrotation
    JOINT lThigh
    {
      OFFSET 0 -1.70687 -2.19456
      CHANNELS 3 Zrotation Xrotation Yrotation
      JOINT lShin
      {
        OFFSET 0 -36.8199 0.73152
        CHANNELS 3 Zrotation Xrotation Yrotation
        JOINT lFoot
        {
          OFFSET -0.73152 -45.1104 -5.12064
          CHANNELS 3 Zrotation Xrotation Yrotation
          End Site
          {
            OFFSET 1.1221 -3.69964 12.103
          }
        }
      }
    }
  }
}
MOTION
Frames:	4
Frame Time:	0.00833333
-75.7054 85.0933 -26.0726 4.10589 11.7886 -75.4494 13.2438 -5.24605 -1.54724 0.445535 -0.622679 -0.646794 -14.9536 7.68815 -14.7266 16.0585 -17.7411 -24.5121 -0 0 0 -0 0 0 -2.30842e-014 -3.00204e-014 4.96962e-015 74.9571 16.3502 6.16137 -19.3856 -12.2583 37.2087 -0.00021429 -0.417992 -0.058746 2.56447e-010 -3.11004e-010 1.17948e-010 4.4316e-010 -5.36356e-010 2.03583e-010 2.56455e-010 -3.11005e-010 1.17935e-010 7.73091 5.47488 0.417314 2.5645e-010 -3.11006e-010 1.17948e-010 2.90554 0.965183 0.102902 2.56453e-010 -3.11007e-010 1.17947e-010 10.2786 0.731801 0.0259123 2.56439e-010 -3.11005e-010 1.1796e-010 2.22167 -0.733487 -0.20892 -2.30354e-014 -3.0011e-014 4.57205e-015 -79.8766 -23.5725 17.3862 8.06843 -3.04764 -14.2258 3.45658 45.5183 -8.22766 -6.48735e-010 7.0555e-010 1.02408e-009 -1.08095e-009 1.23674e-009 1.78525e-009 -6.48744e-010 7.0555e-010 1.02408e-009 -7.73091 5.47488 -0.417314 -6.48734e-010 7.05549e-010 1.02408e-009 -2.90554 0.965183 -0.102902 -6.48742e-010 7.0555e-010 1.02408e-009 -10.2786 0.731801 -0.0259123 -6.48729e-010 7.05553e-010 1.02408e-009 -2.22167 -0.733487 0.20892 -2.03217e-016 0 -3.88251e-019 15.624 -17.5335 4.34881 -0.0422265 15.885 0.0673285 -1.41007 -0.699305 -13.2317 2.03217e-016 0 3.88251e-019 17.3369 -24.7166 3.28334 0.728078 53.3841 -1.14447 0.367611 4.63578 -9.29534 
-76.3404 85.0872 -25.9671 4.15036 11.8472 -75.6378 13.283 -5.06748 -1.44045 0.430967 -0.621537 -0.611603 -14.9736 7.70797 -14.7458 16.1421 -17.8005 -24.5327 -0 0 0 -0 0 0 -1.70982e-014 -9.78384e-014 5.37251e-014 75.7186 15.4723 5.84815 -18.7324 -11.4941 35.6997 -0.000292167 -0.349985 -0.0491841 3.47423e-010 -4.02129e-010 6.07861e-012 6.00614e-010 -6.93962e-010 1.01961e-011 3.47433e-010 -4.02129e-010 6.06283e-012 7.73091 5.47488 0.417314 3.47428e-010 -4.02131e-010 6.07867e-012 2.90554 0.965183 0.102902 3.4743e-010 -4.02132e-010 6.07904e-012 10.2786 0.731801 0.0259123 3.47416e-010 -4.0213e-010 6.09147e-012 2.22167 -0.733487 -0.20892 -1.7064e-014 -9.78302e-014 5.33057e-014 -79.9685 -22.7577 17.514 8.16856 -3.10071 -14.4088 3.30907 44.7963 -8.02054 -5.33112e-010 8.3121e-010 1.25968e-009 -8.74388e-010 1.44508e-009 2.1874e-009 -5.33121e-010 8.31209e-010 1.25969e-009 -7.73091 5.47488 -0.417314 -5.33111e-010 8.31208e-010 1.25968e-009 -2.90554 0.965183 -0.102902 -5.3312e-010 8.3121e-010 1.25968e-009 -10.2786 0.731801 -0.0259123 -5.33107e-010 8.31213e-010 1.25968e-009 -2.22167 -0.733487 0.20892 -2.03217e-016 0 -3.88251e-019 15.8052 -17.1569 4.49698 -0.0390883 15.9455 0.0815538 -1.48693 -1.0621 -13.2707 2.03217e-016 0 3.88251e-019 17.7406 -25.604 3.5778 0.735868 53.5522 -1.1484 0.259616 3.92677 -8.38917 
-76.9692 85.0809 -25.8548 4.20573 11.8952 -75.829 13.313 -4.89306 -1.33213 0.411181 -0.624017 -0.576285 -14.9898 7.73122 -14.7646 16.2254 -17.8618 -24.5537 -0 0 0 -0 0 0 -9.21486e-015 -9.49184e-014 7.63364e-014 76.4163 14.5352 5.55902 -18.0836 -10.7774 34.2119 -0.000440323 -0.188896 -0.0265379 5.07306e-010 -4.80485e-010 -1.39156e-010 8.76936e-010 -8.29297e-010 -2.41434e-010 5.07318e-010 -4.80485e-010 -1.39175e-010 7.73091 5.47488 0.417314 5.07311e-010 -4.80488e-010 -1.39155e-010 2.90554 0.965183 0.102902 5.07313e-010 -4.8049e-010 -1.39153e-010 10.2786 0.731801 0.0259123 5.073e-010 -4.80486e-010 -1.39142e-010 2.22167 -0.733487 -0.20892 -9.22615e-015 -9.49134e-014 7.58954e-014 -80.1158 -21.7898 17.5897 8.29167 -3.16607 -14.6347 3.14108 43.93 -7.78012 -4.31303e-010 1.04461e-009 1.62498e-009 -6.87521e-010 1.80675e-009 2.81424e-009 -4.3131e-010 1.04461e-009 1.62498e-009 -7.73091 5.47488 -0.417314 -4.31301e-010 1.04461e-009 1.62498e-009 -2.90554 0.965183 -0.102902 -4.31311e-010 1.04461e-009 1.62498e-009 -10.2786 0.731801 -0.0259123 -4.31298e-010 1.04462e-009 1.62497e-009 -2.22167 -0.733487 0.20892 -2.03217e-016 0 -3.88251e-019 15.9642 -16.785 4.6459 -0.0357335 15.9979 0.0965212 -1.56384 -1.41784 -13.3161 2.03217e-016 0 3.88251e-019 18.1218 -26.4687 3.85261 0.73874 53.6049 -1.14802 0.179403 3.22693 -7.45691 
-77.5923 85.0748 -25.7358 4.27213 11.9325 -76.024 13.3336 -4.72611 -1.22321 0.386105 -0.629662 -0.541218 -15.0025 7.75746 -14.7824 16.3068 -17.921 -24.5746 -0 0 0 -0 0 0 5.56586e-015 -2.64258e-014 9.90456e-014 77.0538 13.5621 5.28451 -17.4389 -10.0991 32.7641 -0.000441436 0.0664178 0.00934518 5.10425e-010 -6.31146e-010 -1.89833e-010 8.82448e-010 -1.09024e-009 -3.28881e-010 5.10438e-010 -6.31146e-010 -1.89854e-010 7.73091 5.47488 0.417314 5.1043e-010 -6.3115e-010 -1.89831e-010 2.90554 0.965183 0.102902 5.10432e-010 -6.31152e-010 -1.89827e-010 10.2786 0.731801 0.0259123 5.10419e-010 -6.31148e-010 -1.89819e-010 2.22167 -0.733487 -0.20892 5.50704e-015 -2.64242e-014 9.85922e-014 -80.2929 -20.7504 17.631 8.43186 -3.24127 -14.8922 2.96732 42.9863 -7.52679 -3.68896e-010 1.1678e-009 1.83232e-009 -5.73263e-010 2.01381e-009 3.17016e-009 -3.68902e-010 1.1678e-009 1.83232e-009 -7.73091 5.47488 -0.417314 -3.68892e-010 1.16779e-009 1.83231e-009 -2.90554 0.965183 -0.102902 -3.68904e-010 1.1678e-009 1.83232e-009 -10.2786 0.731801 -0.0259123 -3.68891e-010 1.1678e-009 1.83231e-009 -2.22167 -0.733487 0.20892 -2.03217e-016 0 -3.88251e-019 16.1002 -16.4144 4.79439 -0.0325475 16.0371 0.111859 -1.64051 -1.76593 -13.3638 2.03217e-016 0 3.88251e-019 18.4817 -27.3007 4.10736 0.736242 53.5335 -1.14281 0.127793 2.55514 -6.52072 
